<svg width="46" height="46" viewBox="0 0 46 46" fill="none" xmlns="http://www.w3.org/2000/svg">
<path d="M19.25 24.875C24.4277 24.875 28.625 20.6777 28.625 15.5C28.625 10.3223 24.4277 6.125 19.25 6.125C14.0723 6.125 9.875 10.3223 9.875 15.5C9.875 20.6777 14.0723 24.875 19.25 24.875Z" stroke="url(#paint0_linear_49_1179)" stroke-opacity="0.57" stroke-width="5" stroke-linecap="round" stroke-linejoin="round"/>
<path d="M4.25 39.8751C4.25022 37.5144 4.80761 35.1871 5.87686 33.0824C6.9461 30.9778 8.497 29.1552 10.4034 27.7629C12.3098 26.3706 14.518 25.448 16.8482 25.07C19.1784 24.692 21.565 24.8693 23.8137 25.5876" stroke="url(#paint1_linear_49_1179)" stroke-opacity="0.57" stroke-width="5" stroke-linecap="round" stroke-linejoin="round"/>
<path d="M34.25 39.875C37.3566 39.875 39.875 37.3566 39.875 34.25C39.875 31.1434 37.3566 28.625 34.25 28.625C31.1434 28.625 28.625 31.1434 28.625 34.25C28.625 37.3566 31.1434 39.875 34.25 39.875Z" stroke="url(#paint2_linear_49_1179)" stroke-opacity="0.57" stroke-width="5" stroke-linecap="round" stroke-linejoin="round"/>
<path d="M41.75 41.75L38.1875 38.1875" stroke="url(#paint3_linear_49_1179)" stroke-opacity="0.57" stroke-width="5" stroke-linecap="round" stroke-linejoin="round"/>
<defs>
<linearGradient id="paint0_linear_49_1179" x1="19.25" y1="6.125" x2="19.25" y2="24.875" gradientUnits="userSpaceOnUse">
<stop stop-color="#00AAFF"/>
<stop offset="0.355" stop-color="#206FFF"/>
<stop offset="1" stop-color="#5B02FF"/>
</linearGradient>
<linearGradient id="paint1_linear_49_1179" x1="14.0319" y1="24.8765" x2="14.0319" y2="39.8751" gradientUnits="userSpaceOnUse">
<stop stop-color="#00AAFF"/>
<stop offset="0.355" stop-color="#206FFF"/>
<stop offset="1" stop-color="#5B02FF"/>
</linearGradient>
<linearGradient id="paint2_linear_49_1179" x1="34.25" y1="28.625" x2="34.25" y2="39.875" gradientUnits="userSpaceOnUse">
<stop stop-color="#00AAFF"/>
<stop offset="0.355" stop-color="#206FFF"/>
<stop offset="1" stop-color="#5B02FF"/>
</linearGradient>
<linearGradient id="paint3_linear_49_1179" x1="39.9687" y1="38.1875" x2="39.9687" y2="41.75" gradientUnits="userSpaceOnUse">
<stop stop-color="#00AAFF"/>
<stop offset="0.355" stop-color="#206FFF"/>
<stop offset="1" stop-color="#5B02FF"/>
</linearGradient>
</defs>
</svg>
