<svg width="46" height="45" viewBox="0 0 46 45" fill="none" xmlns="http://www.w3.org/2000/svg">
<path d="M30.5 18.75H34.25" stroke="url(#paint0_linear_49_1169)" stroke-opacity="0.57" stroke-width="5" stroke-linecap="round" stroke-linejoin="round"/>
<path d="M30.5 26.25H34.25" stroke="url(#paint1_linear_49_1169)" stroke-opacity="0.57" stroke-width="5" stroke-linecap="round" stroke-linejoin="round"/>
<path d="M12.0688 28.1251C12.4554 27.0263 13.1734 26.0747 14.1239 25.4015C15.0744 24.7283 16.2104 24.3667 17.3751 24.3667C18.5398 24.3667 19.6758 24.7283 20.6263 25.4015C21.5768 26.0747 22.2948 27.0263 22.6813 28.1251" stroke="url(#paint2_linear_49_1169)" stroke-opacity="0.57" stroke-width="5" stroke-linecap="round" stroke-linejoin="round"/>
<path d="M17.375 24.375C19.4461 24.375 21.125 22.6961 21.125 20.625C21.125 18.5539 19.4461 16.875 17.375 16.875C15.3039 16.875 13.625 18.5539 13.625 20.625C13.625 22.6961 15.3039 24.375 17.375 24.375Z" stroke="url(#paint3_linear_49_1169)" stroke-opacity="0.57" stroke-width="5" stroke-linecap="round" stroke-linejoin="round"/>
<path d="M38 9.375H8C5.92893 9.375 4.25 11.0539 4.25 13.125V31.875C4.25 33.9461 5.92893 35.625 8 35.625H38C40.0711 35.625 41.75 33.9461 41.75 31.875V13.125C41.75 11.0539 40.0711 9.375 38 9.375Z" stroke="url(#paint4_linear_49_1169)" stroke-opacity="0.57" stroke-width="5" stroke-linecap="round" stroke-linejoin="round"/>
<defs>
<linearGradient id="paint0_linear_49_1169" x1="32.375" y1="18.75" x2="32.375" y2="19.75" gradientUnits="userSpaceOnUse">
<stop stop-color="#00AAFF"/>
<stop offset="0.355" stop-color="#206FFF"/>
<stop offset="1" stop-color="#5B02FF"/>
</linearGradient>
<linearGradient id="paint1_linear_49_1169" x1="32.375" y1="26.25" x2="32.375" y2="27.25" gradientUnits="userSpaceOnUse">
<stop stop-color="#00AAFF"/>
<stop offset="0.355" stop-color="#206FFF"/>
<stop offset="1" stop-color="#5B02FF"/>
</linearGradient>
<linearGradient id="paint2_linear_49_1169" x1="17.3751" y1="24.3667" x2="17.3751" y2="28.1251" gradientUnits="userSpaceOnUse">
<stop stop-color="#00AAFF"/>
<stop offset="0.355" stop-color="#206FFF"/>
<stop offset="1" stop-color="#5B02FF"/>
</linearGradient>
<linearGradient id="paint3_linear_49_1169" x1="17.375" y1="16.875" x2="17.375" y2="24.375" gradientUnits="userSpaceOnUse">
<stop stop-color="#00AAFF"/>
<stop offset="0.355" stop-color="#206FFF"/>
<stop offset="1" stop-color="#5B02FF"/>
</linearGradient>
<linearGradient id="paint4_linear_49_1169" x1="23" y1="9.375" x2="23" y2="35.625" gradientUnits="userSpaceOnUse">
<stop stop-color="#00AAFF"/>
<stop offset="0.355" stop-color="#206FFF"/>
<stop offset="1" stop-color="#5B02FF"/>
</linearGradient>
</defs>
</svg>
